<svg preserveAspectRatio="none" width="100%" height="100%" overflow="visible" style="display: block;" viewBox="0 0 90 70" fill="none" xmlns="http://www.w3.org/2000/svg">
<g id="arrow">
<path id="Vector" d="M74 22C73.6686 16.6121 71.0317 11.8968 71.0317 11.8968L70.8649 14.4516C68.6016 11.7952 65.3114 10.0871 61.6357 10C60.651 11.3476 60.1927 12.9782 60 14.4758C60.4371 14.4032 60.886 14.3645 61.342 14.3645C63.8684 14.3645 66.134 15.521 67.678 17.3403L64.5711 17.9306C64.5711 17.9306 70.4324 19.2081 74 22Z" fill="var(--fill-0, #00FBFF)"/>
<path id="Vector_2" d="M28 10C22.6121 10.3314 17.8968 12.9683 17.8968 12.9683L20.4516 13.1351C17.7952 15.396 16.0871 18.6886 16 22.3643C17.3476 23.349 18.9782 23.8073 20.4758 24C20.4032 23.5629 20.3645 23.114 20.3645 22.658C20.3645 20.1316 21.521 17.866 23.3403 16.322L23.9306 19.4289C23.9306 19.4289 25.2081 13.5676 28 10Z" fill="var(--fill-0, #00FBFF)"/>
<path id="Vector_3" d="M16 48C16.3314 53.3879 18.9683 58.1032 18.9683 58.1032L19.1351 55.5484C21.396 58.2073 24.6886 59.9129 28.3643 60C29.349 58.6524 29.8073 57.0218 30 55.5242C29.5629 55.5968 29.114 55.6355 28.658 55.6355C26.1316 55.6355 23.866 54.479 22.322 52.6597L25.4289 52.0694C25.4289 52.0694 19.5676 50.7919 16 48Z" fill="var(--fill-0, #00FBFF)"/>
<path id="Vector_4" d="M62.0048 60C67.3917 59.6686 72.106 57.0317 72.106 57.0317L69.5493 56.8649C72.2076 54.604 73.9129 51.3114 74 47.6357C72.6503 46.651 71.0224 46.1927 69.5251 46C69.5977 46.4371 69.6364 46.886 69.6364 47.342C69.6364 49.8684 68.4801 52.134 66.6587 53.678L66.0685 50.5711C66.0685 50.5711 64.7914 56.4324 62 60H62.0048Z" fill="var(--fill-0, #00FBFF)"/>
</g>
</svg>
