<svg preserveAspectRatio="none" width="100%" height="100%" overflow="visible" style="display: block;" viewBox="0 0 36 24" fill="none" xmlns="http://www.w3.org/2000/svg">
<g id="line">
<path d="M20.2289 11.6443C20.6078 11.5306 21.011 11.7623 20.9325 12.1315C20.7775 12.8587 20.1814 13.707 18.5662 13.8806C17.0442 14.0442 16.0987 13.4436 15.5849 12.8183C15.3047 12.4772 15.6387 12.0756 16.0934 12.1073C17.6268 12.2144 18.7301 12.0941 20.2289 11.6443Z" fill="var(--fill-0, #212121)"/>
<path d="M15.077 7.71604C15.6015 7.64318 16.0899 7.98721 16.1675 8.48432L16.3551 9.68902C16.4327 10.1861 16.0707 10.6482 15.5462 10.7213C15.0216 10.7942 14.5332 10.4501 14.4556 9.95299L14.2674 8.74829C14.1899 8.25116 14.5524 7.78897 15.077 7.71604Z" fill="var(--fill-0, #212121)"/>
<path d="M20.3286 7.37943C20.8583 7.35739 21.3073 7.74628 21.3313 8.24811L21.3899 9.4652C21.4139 9.96696 21.004 10.392 20.4744 10.4142C19.9448 10.4362 19.4959 10.0472 19.4717 9.54552L19.4131 8.32783C19.3892 7.8261 19.799 7.40155 20.3286 7.37943Z" fill="var(--fill-0, #212121)"/>
<path fill-rule="evenodd" clip-rule="evenodd" d="M19.0598 0.203825C20.32 0.203887 21.8744 0.587619 22.7952 1.75103C23.1414 2.1886 23.3744 2.64505 23.5237 3.09627C23.9951 2.99171 24.6217 2.88642 25.278 2.96753C26.1911 3.08046 27.1086 3.54186 27.8337 4.64111C28.3435 5.41413 28.4841 6.1802 28.3939 6.87866C38.6505 4.92375 37.9308 10.1709 29.8404 14.6265C29.5349 15.122 29.1424 15.5087 28.7554 15.7887C29.2429 16.5098 29.5744 17.652 28.8651 18.9965C28.351 19.9706 27.475 20.3801 26.6403 20.4882C26.637 20.4886 26.6336 20.4883 26.6303 20.4887C26.5891 20.8149 26.477 21.1943 26.2265 21.5706C25.76 22.271 24.8844 22.8579 23.4016 23.1178C21.7589 23.4056 20.5585 22.7699 19.7951 22.0501C19.509 22.3598 19.1295 22.7237 18.6697 23.0511C17.8382 23.643 16.6769 24.1661 15.3113 23.9505C14.0763 23.7554 13.3124 23.0382 12.8796 22.196C12.6919 21.8305 12.5662 21.4392 12.4832 21.0509C7.88628 22.1123 2.84139 22.6073 1.37984 20.6683C-0.156451 18.6299 3.08374 16.1461 6.20085 14.7883C5.45896 13.5522 5.2612 11.8088 5.90047 9.99137C6.4642 8.38886 7.56139 7.51476 8.7927 7.22294C8.90154 7.19715 9.01108 7.17696 9.1205 7.16034C8.87592 6.67236 8.78845 6.12274 8.86935 5.53164C9.01526 4.4661 9.69444 3.32618 10.7925 2.18153C12.0247 0.897276 14.0975 0.433043 15.7693 0.884713C15.9715 0.939342 16.1698 1.00845 16.3614 1.0914C16.4391 0.993654 16.5286 0.91003 16.6187 0.840423C16.8163 0.687925 17.0552 0.570248 17.303 0.480786C17.7995 0.30163 18.4188 0.203842 19.0598 0.203825ZM27.2267 15.9174C26.9125 16.0568 26.5908 16.1957 26.2614 16.3314C24.2566 17.157 20.8414 18.4341 18.3207 19.3478C17.0642 19.8033 15.4529 20.3056 13.7203 20.7498C13.7851 21.0732 13.8834 21.387 14.0269 21.6663C14.3158 22.2287 14.7704 22.639 15.5213 22.7576C16.4095 22.8978 17.2209 22.5701 17.9031 22.0844C18.5843 21.5994 19.0676 21.0038 19.2604 20.748L19.3084 20.6913C19.4292 20.5661 19.6014 20.4939 19.7827 20.4946C19.9898 20.4956 20.1837 20.5919 20.3024 20.7527C20.8077 21.4366 21.7474 22.1777 23.1697 21.9285C24.3948 21.7137 24.9156 21.2727 25.1471 20.9251C25.2554 20.7625 25.3138 20.5971 25.3447 20.448C25.0396 20.3946 24.767 20.3189 24.5513 20.2372C24.2242 20.1132 24.0647 19.7606 24.1955 19.4506C24.3264 19.1407 24.6979 18.9901 25.025 19.114C25.366 19.2432 25.93 19.3596 26.4677 19.29C26.9769 19.224 27.436 19 27.7234 18.4555C28.3572 17.2543 27.7248 16.3742 27.385 16.1058C27.3182 16.0531 27.2652 15.9885 27.2267 15.9174ZM7.15994 15.8743C5.77975 16.4148 3.17173 17.5218 3.54231 19.3153C3.7273 20.2099 5.54642 20.1991 7.5457 19.8953C6.92386 18.9405 6.89166 17.9593 7.08703 17.1687C7.18368 16.7778 7.33982 16.4175 7.5189 16.117C7.39425 16.0442 7.27499 15.9625 7.15994 15.8743ZM19.0598 1.41324C18.543 1.41326 18.0824 1.49381 17.7573 1.61107C17.5948 1.66973 17.4869 1.73004 17.4251 1.7776L17.422 1.77938C17.6041 1.95001 17.7701 2.14176 17.9131 2.35692C18.4228 3.12361 18.6141 4.11538 18.4061 5.29838C18.3481 5.62771 18.0188 5.85035 17.6713 5.79561C17.3238 5.74063 17.0893 5.42874 17.1472 5.09937C17.3147 4.14691 17.1436 3.46899 16.8331 3.00179C16.5207 2.53195 16.0245 2.21097 15.4197 2.04748C14.1763 1.71149 12.6174 2.07801 11.7373 2.99529C10.7232 4.05232 10.2334 4.96935 10.1351 5.68695C10.0503 6.30578 10.2482 6.81471 10.7626 7.2253C11.262 7.33904 11.7263 7.53272 12.1193 7.78099C12.4124 7.96625 12.4917 8.34171 12.2963 8.61956C12.1008 8.89731 11.7045 8.97242 11.4114 8.78727C11.1514 8.62302 10.8445 8.49375 10.5158 8.41346C10.426 8.41387 10.3357 8.39717 10.251 8.3609C9.87532 8.30161 9.48107 8.30663 9.10243 8.39633C8.33047 8.57929 7.54928 9.12904 7.11133 10.374C6.17529 13.0354 7.41487 14.9529 8.68489 15.2967C8.91215 15.3583 9.08465 15.5341 9.13359 15.7532C9.18242 15.9724 9.09959 16.1998 8.91796 16.3432C8.79716 16.4388 8.47714 16.848 8.32967 17.4445C8.19005 18.0095 8.22087 18.6815 8.68427 19.3401C8.76644 19.4569 8.84942 19.5584 8.93167 19.6472C10.0251 19.4256 11.0732 19.1592 11.8395 18.9451C13.8345 18.3875 17.8116 17.0102 21.1768 15.7597C22.831 15.1172 26.243 13.6428 29.0801 12.1315C29.0499 11.9465 29.0033 11.7517 28.9367 11.5468C28.5802 10.4491 28.024 9.99808 27.5607 9.81539C27.0695 9.62171 26.5689 9.68435 26.2776 9.79472C25.9701 9.91119 25.6195 9.78553 25.4705 9.50536C25.3217 9.22495 25.4241 8.88274 25.7061 8.71818C26.1519 8.45818 26.6798 7.95672 26.955 7.3375C27.2174 6.74692 27.2558 6.04678 26.7518 5.28244C26.2248 4.48332 25.6396 4.23207 25.1128 4.16691C24.6436 4.10892 24.1817 4.19126 23.7431 4.29093C23.7867 5.18325 23.5728 5.95826 23.3685 6.39383C23.2254 6.69893 22.848 6.83636 22.526 6.7009C22.204 6.56524 22.0588 6.20766 22.2019 5.9025C22.4811 5.30713 22.7872 3.75748 21.7738 2.4768C21.1921 1.74181 20.116 1.41331 19.0598 1.41324ZM33.587 8.35913C32.9912 7.24776 30.1192 7.64755 28.0206 8.03197C27.9186 8.22515 27.8018 8.40792 27.6742 8.57822C27.7991 8.60978 27.9252 8.64903 28.0512 8.69869C28.9319 9.04599 29.7114 9.82122 30.1563 11.1913C30.189 11.292 30.2172 11.3915 30.2429 11.4896C32.4095 10.2475 33.961 9.05698 33.587 8.35913Z" fill="var(--fill-0, #212121)"/>
<path d="M2.02422 12.2856C2.13045 12.0304 2.51189 12.0304 2.61812 12.2856L3.0824 13.4017C3.11479 13.4795 3.17981 13.541 3.26188 13.5718L4.44033 14.0123C4.7094 14.1131 4.70947 14.4744 4.44033 14.5751L3.26188 15.0151C3.17984 15.0458 3.11483 15.1074 3.0824 15.1851L2.61812 16.3018C2.51186 16.5569 2.13056 16.5568 2.02422 16.3018L1.55932 15.1851C1.52684 15.1074 1.46196 15.0458 1.37984 15.0151L0.202009 14.5751C-0.0673362 14.4745 -0.0673362 14.113 0.202009 14.0123L1.37984 13.5718C1.46201 13.5411 1.52689 13.4796 1.55932 13.4017L2.02422 12.2856Z" fill="var(--fill-0, #212121)"/>
<path d="M31.6981 0.191423C31.8043 -0.0638078 32.1858 -0.0638078 32.292 0.191423L32.8466 1.52426C32.8791 1.60216 32.9439 1.66419 33.0261 1.69493L34.4333 2.22051C34.7024 2.32127 34.7024 2.68259 34.4333 2.78329L33.0261 3.30886C32.944 3.3396 32.8791 3.40115 32.8466 3.47894L32.292 4.81237C32.1857 5.06741 31.8044 5.06734 31.6981 4.81237L31.1435 3.47894C31.111 3.40105 31.0456 3.33959 30.9634 3.30886L29.5568 2.78329C29.2875 2.68263 29.2875 2.32117 29.5568 2.22051L30.9634 1.69493C31.0456 1.6642 31.111 1.60219 31.1435 1.52426L31.6981 0.191423Z" fill="var(--fill-0, #212121)"/>
</g>
</svg>
