<svg preserveAspectRatio="none" width="100%" height="100%" overflow="visible" style="display: block;" viewBox="0 0 118.531 29.9305" fill="none" xmlns="http://www.w3.org/2000/svg">
<g id="Group 31">
<path id="Vector" d="M88.7722 20.6482L81.7604 3.90897C81.5391 3.38217 81.0228 3.03711 80.4513 3.03711C79.8797 3.03711 79.3634 3.37953 79.1421 3.90897L72.1277 20.6456C71.8248 21.37 72.1646 22.1997 72.889 22.5026C73.6133 22.8055 74.443 22.4657 74.746 21.7414L77.0692 16.1994H83.8307L86.1539 21.744C86.3805 22.2892 86.9099 22.6159 87.463 22.6159C87.6448 22.6159 87.8318 22.5816 88.0109 22.5052C88.7353 22.2023 89.0751 21.37 88.7722 20.6482ZM78.2597 13.3625L80.4513 8.13132L82.6428 13.3625H78.2597Z" fill="var(--fill-0, white)"/>
<path id="Vector_2" d="M92.7061 22.7686C91.8343 22.7686 91.1283 22.0626 91.1283 21.1908V8.95571C91.1283 8.08385 91.8343 7.37793 92.7061 7.37793C93.578 7.37793 94.2839 8.08385 94.2839 8.95571V21.1908C94.2839 22.0626 93.578 22.7686 92.7061 22.7686Z" fill="var(--fill-0, white)"/>
<path id="Vector_3" d="M104.194 27.7391C104.194 28.0683 104.468 28.3344 104.808 28.3344C104.958 28.3344 105.132 28.2422 105.259 28.15L105.277 28.1368L112.763 22.1523L105.327 15.022C104.869 14.6506 104.186 14.9772 104.186 15.425V20.0056C104.186 20.6746 103.502 20.7958 103.006 20.5982L101.684 20.1109C101.634 20.0925 101.584 20.0714 101.542 20.0398C101.194 19.7975 101.047 19.3787 101.047 19.0125V5.79234C101.047 4.95472 101.726 4.27514 102.564 4.27514H109.705C111.68 4.28567 114.604 5.82395 114.604 9.19287C114.604 9.84084 114.52 10.7048 114.383 11.1868C114.093 12.2062 113.572 12.978 113.108 13.3994C111.775 14.6111 110.271 14.6242 109.771 14.5953L109.46 14.5874L115.344 20.0319C117.459 17.7561 118.695 14.6875 118.513 11.3343C118.186 5.34982 113.266 0.45843 107.134 0.0317175C104.157 -0.176371 101.386 0.650714 99.1581 2.18109C97.8964 3.04768 97.172 4.47796 97.172 5.98199V18.0037C97.172 19.5156 97.9148 20.9433 99.1844 21.8125C100.512 22.7186 101.763 23.335 103.402 23.6748C103.91 23.7801 104.176 24.1094 104.176 24.8179" fill="var(--fill-0, white)"/>
<path id="Vector_4" d="M109.66 11.2867C109.807 11.2867 110.324 11.2261 110.674 10.8969C110.94 10.6493 111.143 10.241 111.143 9.60354C111.143 8.00205 110.273 7.62539 109.541 7.59115H104.747C104.36 7.59115 104.047 7.9046 104.047 8.2918V10.5887C104.047 10.9759 104.36 11.2893 104.747 11.2893H109.489L109.657 11.2841L109.66 11.2867Z" fill="var(--fill-0, white)"/>
<path id="Vector_5" d="M8.39992 3.62712V13.215H5.99769V6.01881H0V3.62712H8.39992Z" fill="var(--fill-0, white)"/>
<path id="Vector_6" d="M4.88876 10.4069V15.9858H8.39992V18.3854H0V15.9858H2.48916V10.4069H4.89139H4.88876Z" fill="var(--fill-0, white)"/>
<path id="Vector_7" d="M13.0305 2.86296V7.86498H16.3283V10.2672H13.0305V22.5997H10.6283V2.86296H13.0305Z" fill="var(--fill-0, white)"/>
<path id="Vector_8" d="M66.8385 2.86296V7.86498H70.1363V10.2672H66.8385V22.5997H64.4389V2.86296H66.8385Z" fill="var(--fill-0, white)"/>
<path id="Vector_9" d="M58.1753 3.57707C55.515 3.57707 53.3472 5.74224 53.3472 8.40524C53.3472 11.0682 55.5123 13.2334 58.1753 13.2334C60.8383 13.2334 63.0035 11.0682 63.0035 8.40524C63.0035 5.74224 60.8383 3.57707 58.1753 3.57707ZM58.1753 10.8338C56.8346 10.8338 55.7441 9.74333 55.7441 8.40261C55.7441 7.06189 56.8346 5.9714 58.1753 5.9714C59.5161 5.9714 60.6066 7.06189 60.6066 8.40261C60.6066 9.74333 59.5161 10.8338 58.1753 10.8338Z" fill="var(--fill-0, white)"/>
<path id="Vector_10" d="M49.8676 3.63748V6.03181H42.7188V10.7625H49.8676V13.1674H46.3906V16.0042H49.8676V18.4091H40.3166V16.0042H43.9884V13.1674H40.3166V3.63485H49.8676V3.63748Z" fill="var(--fill-0, white)"/>
<path id="Vector_11" d="M45.1131 20.1135C42.4079 20.1135 40.2059 22.3156 40.2059 25.0207C40.2059 27.7259 42.4079 29.9305 45.1131 29.9305C47.8182 29.9305 50.0229 27.7285 50.0229 25.0207C50.0229 22.3129 47.8209 20.1135 45.1131 20.1135ZM45.1131 27.523C43.7329 27.523 42.6108 26.401 42.6108 25.0207C42.6108 23.6405 43.7329 22.5184 45.1131 22.5184C46.4933 22.5184 47.6154 23.6405 47.6154 25.0207C47.6154 26.401 46.4933 27.523 45.1131 27.523Z" fill="var(--fill-0, white)"/>
<path id="Vector_12" d="M26.7434 2.86051V5.03886H21.4543V2.86051H26.7434Z" fill="var(--fill-0, white)"/>
<path id="Vector_13" d="M32.6885 2.86296V7.86498H35.9889V10.2672H32.6885V20.208H35.8204V29.7906H33.4181V22.5971H27.4178V20.208H30.2889V2.86296H32.6859H32.6885Z" fill="var(--fill-0, white)"/>
<path id="Vector_14" d="M28.6293 6.07666H19.4629V8.35246H20.232L20.2004 8.42885C19.9844 8.93722 19.8712 9.50353 19.8712 10.0672C19.8712 12.372 21.7466 14.2474 24.0514 14.2474C26.3561 14.2474 28.2316 12.372 28.2316 10.0672C28.2316 9.5009 28.1183 8.95039 27.8971 8.42885L27.8654 8.35246H28.6346V6.07666H28.6293ZM24.0487 11.9189C23.0267 11.9189 22.1944 11.0866 22.1944 10.0646C22.1944 9.04258 23.0267 8.20759 24.0487 8.20759C25.0707 8.20759 25.9031 9.03994 25.9031 10.0646C25.9031 11.0892 25.0707 11.9189 24.0487 11.9189Z" fill="var(--fill-0, white)"/>
<path id="Vector_15" d="M94.5736 3.47408C94.5736 4.51979 93.736 5.36795 92.7035 5.36795C91.6709 5.36795 90.8333 4.51979 90.8333 3.47408C90.8333 2.42837 91.6709 1.58285 92.7035 1.58285C93.736 1.58285 94.5736 2.431 94.5736 3.47408Z" fill="var(--fill-0, white)"/>
</g>
</svg>
