<svg preserveAspectRatio="none" width="100%" height="100%" overflow="visible" style="display: block;" viewBox="0 0 23.2789 22.6261" fill="none" xmlns="http://www.w3.org/2000/svg">
<path id="fill" d="M0.263022 9.71963C1.15033 6.46833 3.47858 6.95104 4.69809 7.46642C3.79754 6.92097 2.51173 5.843 3.19637 4.40226C4.45953 1.74409 6.67006 0.562678 8.24901 0.858031C9.51217 1.09431 10.249 1.35027 10.4595 1.44871C10.4595 0.601976 11.8627 -0.346559 13.8051 0.126005C16.2332 0.71671 16.8699 2.5183 16.87 3.46028C17.5946 2.82598 19.829 2.47136 21.0683 4.32598C22.3076 6.1806 20.6246 7.90778 19.5505 8.52598C20.3767 8.21688 22.2734 8.46769 23.0666 10.8787C23.8598 13.2896 22.2404 14.6651 21.3316 15.0515C21.8273 15.4379 22.6205 16.5815 21.8273 18.0652C21.3196 19.0148 20.3787 19.2554 19.5505 19.2244C19.6331 19.7654 19.5505 21.3108 16.87 21.7745C15.126 22.0762 13.9783 21.1563 13.3999 20.3835C12.9868 20.9245 11.3123 22.9336 9.0815 22.5859C7.1158 22.2795 6.60285 20.9631 6.60285 19.5722C5.46813 20.3835 3.3806 21.0789 1.89341 18.9925C0.745046 17.3815 1.75014 15.6698 2.24588 15.2834C0.510852 14.8198 -0.512866 12.5626 0.263022 9.71963Z" fill="var(--fill-0, #FDD808)"/>
</svg>
