<svg preserveAspectRatio="none" width="100%" height="100%" overflow="visible" style="display: block;" viewBox="0 0 129.775 100" fill="none" xmlns="http://www.w3.org/2000/svg">
<g id="Vector">
<path d="M86.1047 90.8125C86.2924 91.2047 85.9833 94.2263 86.3312 94.8764C87.2596 95.2094 92.6069 92.9659 93.6279 92.8699C93.8951 93.1196 94.2023 94.4475 94.317 94.8668C93.0349 95.9688 90.5828 97.2095 89.0465 97.8853C87.2141 98.6591 85.3077 99.2455 83.3578 99.6356C82.6151 99.7838 81.9118 99.8468 81.1827 100C80.5335 97.1217 80.335 94.5131 80.3336 91.5635C80.9777 91.3605 84.7741 90.8908 85.6342 90.7886C85.8762 90.7663 85.868 90.7622 86.1047 90.8125Z" fill="white"/>
<path d="M38.4373 76.0733C39.8937 75.9675 42.7753 76.1689 44.2337 76.269C44.3638 77.3739 44.4196 79.2483 44.4476 80.3933C44.5727 85.5204 44.3627 91.8249 43.223 96.8303L42.9569 97.9649C42.0347 97.8777 40.3666 97.5373 39.3973 97.3682C39.4318 96.615 39.4736 95.8596 39.5177 95.1071C39.7441 91.2468 39.6298 87.3579 39.3038 83.5041C39.1771 82.0168 39.0129 80.533 38.8111 79.0536C38.6971 78.2143 38.4694 76.878 38.4373 76.0733Z" fill="white"/>
<path d="M68.1672 75.8059C68.3492 78.0329 68.3465 80.2721 68.3415 82.5049C68.3401 83.1079 68.3408 83.7127 68.2369 84.3093C69.395 84.2891 70.337 84.0113 71.4829 84.0372C71.4607 85.2665 71.699 86.7189 71.6904 88.0231C70.91 88.3614 68.9422 88.6726 68.05 88.8187C67.8709 89.6248 67.7987 90.7351 67.6762 91.5858C67.4067 93.4629 67.1543 95.6093 66.6591 97.4382C66.6518 97.475 66.597 97.5806 66.5783 97.6196C66.181 97.849 63.5877 97.4796 63.0013 97.4175C63.4706 92.4367 63.4927 87.424 63.0678 82.4396C62.888 80.2818 62.5796 78.2326 62.3882 76.1194C63.5499 75.9395 65.585 75.971 66.968 75.8314C67.3904 75.7826 67.7448 75.7987 68.1672 75.8059Z" fill="white"/>
<path d="M46.9442 76.8386C47.7013 76.8638 49.1081 77.1666 49.9636 77.2444C52.8909 77.5107 55.8619 77.6703 58.7985 77.4687C59.2027 77.4407 59.7695 77.3364 60.069 77.5833C60.1514 78.0044 60.0756 78.8953 60.0405 79.3559C59.7688 82.9064 58.7603 85.5064 57.1953 88.623C59.2454 90.2676 60.0337 90.5785 62.4848 91.2866C62.3881 91.9092 62.3316 92.6888 62.2678 93.3265C59.9038 93.8016 57.2658 93.189 55.0203 92.4275C54.9367 92.3973 54.8322 92.3801 54.743 92.3607C54.5443 92.4701 53.5447 93.6408 53.3094 93.9041C52.0744 95.2839 50.6837 96.3875 49.2048 97.4843C48.5091 96.9841 47.8727 96.4322 47.1613 95.9313C47.3687 95.612 47.6017 95.3101 47.8345 95.0116C50.035 92.1864 51.9335 89.0016 52.6314 85.4422C52.8294 84.4317 52.8791 83.3849 52.9403 82.3521C50.9205 82.3988 48.1562 81.9578 46.2599 81.2892C46.437 79.9779 46.6462 78.0931 46.9442 76.8386Z" fill="white"/>
<path d="M22.6067 75.4782C23.2104 75.5451 24.5489 75.9032 25.2048 76.0558C26.3454 76.3163 27.4961 76.5312 28.6535 76.7018C30.2122 76.9227 31.7769 77.098 33.3458 77.2269C34.1819 77.2945 34.9522 77.2734 35.779 77.413C35.8971 84.1048 32.6263 90.0378 27.638 94.2781C26.9787 94.815 26.192 95.3818 25.5073 95.882C24.6577 96.5025 23.5132 95.0938 22.8412 94.5072C23.0243 94.2317 23.2957 93.9121 23.5097 93.6575C25.702 91.0432 27.6184 88.0412 28.286 84.6402C28.4728 83.6874 28.543 82.5552 28.6281 81.5629C26.1339 81.0958 24.3412 81.0618 21.9161 79.7791C22.1304 78.4619 22.3134 76.732 22.6067 75.4782Z" fill="white"/>
<path d="M85.6564 74.0795C85.93 74.3353 86.1971 77.2154 86.2314 77.7456C84.5656 78.6359 80.3987 79.7435 78.5372 79.9335C78.54 82.4901 78.8152 84.4125 78.9506 86.887C81.7689 86.8013 84.3154 85.5309 86.8334 84.8391L86.9205 84.8169C87.134 85.5387 87.2867 86.299 87.4243 87.0382C85.8665 88.0789 84.0984 88.8024 82.3471 89.4409C81.185 89.8757 75.5296 91.5275 74.629 91.1896C74.3309 90.7354 74.1735 89.2758 74.0603 88.6675C73.3358 84.775 72.5438 80.2464 72.3066 76.2913C75.2767 76.0595 78.2302 75.6434 81.1494 75.0453C82.5497 74.7589 84.133 74.3224 85.4995 74.0906L85.6564 74.0795Z" fill="white"/>
<path d="M93.4156 72.5169C93.7065 72.9466 93.6195 78.5379 93.5851 79.5771C94.5171 79.3188 95.689 79.0943 96.6489 78.8849C96.894 83.3193 97.8763 82.8935 93.3158 84.1438C93.0177 85.5139 92.7393 88.9814 92.0263 90.0869C91.1169 90.2776 89.5272 90.2124 88.5633 90.203C88.8958 84.5865 88.6095 78.9501 87.7095 73.3969C89.5288 73.1334 91.3706 72.7682 93.2128 72.5026L93.4156 72.5169Z" fill="white"/>
<path d="M16.1497 48.8925C16.1298 49.1444 15.1835 49.4308 14.9204 49.5417C-0.162757 55.9134 4.15709 62.055 17.8321 65.0781C25.5897 66.7933 32.5673 67.4102 40.5601 67.7672C59.136 68.4856 77.7365 67.3065 96.0754 64.2459C100.26 63.5484 104.421 62.7052 108.548 61.7191C110.021 61.3715 111.487 60.9976 112.947 60.5989C113.855 60.3477 117.466 59.2038 117.948 59.2146C117.264 59.6817 113.573 60.9837 112.593 61.3309L111.225 61.7796C102.661 64.5385 93.5277 66.3387 84.6267 67.6415C75.6562 68.9328 66.6292 69.7923 57.5771 70.2177C46.2172 70.7352 34.6464 70.5744 23.337 69.255C16.9164 68.4035 10.1989 67.4065 4.32552 64.5483C1.79012 63.3145 -1.29922 60.5983 0.575806 57.6234C3.35152 53.2199 11.4884 50.2573 16.1497 48.8925Z" fill="white"/>
<path d="M122.563 50.0016C123.043 50.143 124.579 53.6665 124.899 54.3296C125.298 54.434 126.239 54.5551 126.694 54.6256C127.722 54.7861 128.749 54.9516 129.775 55.1236C128.681 56.3061 127.349 57.4012 126.228 58.6434C126.505 60.255 126.81 61.9149 126.981 63.5394C125.659 63.0032 123.936 61.9109 122.523 61.2545C120.989 61.8972 119.696 62.8359 118.019 63.4456C118.292 62.3489 118.733 59.6833 118.876 58.5383C118.621 58.2287 117.868 57.5196 117.539 57.1922L115.407 55.0313C117.061 54.7874 118.502 54.5381 120.191 54.3646C120.976 53.0958 121.719 51.3611 122.482 49.9857C122.508 49.9914 122.536 49.9937 122.563 50.0016Z" fill="white"/>
<path d="M54.2646 46.9895C54.7901 46.9306 57.8071 46.7375 58.0951 46.9401C58.2469 47.5504 58.204 49.5414 58.1997 50.2801C58.1911 51.8865 58.2239 53.5992 58.168 55.1984C56.6039 55.2243 55.1586 55.3973 53.6056 55.4657C52.4066 55.4701 51.325 55.6129 50.1442 55.6726L42.45 56.0959C42.5962 57.9134 42.5879 60.8462 42.4642 62.6707C39.6542 62.8146 35.8881 62.6971 33.0036 62.6993C32.9819 61.0171 33.005 58.3972 32.8753 56.7642C31.0966 56.7627 30.0479 56.8601 28.2955 56.9631L21.4899 57.3258C20.1091 57.3964 18.5777 57.6319 17.1889 57.5391C16.9478 54.6349 16.7533 51.7277 16.6059 48.8177C19.4136 48.6515 22.3694 48.5771 25.1889 48.4454L41.2349 47.6737C44.6358 47.5053 48.0647 47.2602 51.4686 47.1534C52.3843 47.1246 53.3671 46.9521 54.2646 46.9895Z" fill="white"/>
<path d="M102.794 46.4135C102.541 48.7499 102.449 51.1501 102.254 53.4943C102.212 53.9909 102.226 54.5326 102.084 55.0091C101.594 55.2213 99.8517 55.2565 99.2231 55.2939C94.9373 55.5501 90.6232 55.9094 86.3344 56.0656C86.2068 58.3359 86.292 60.4989 86.1681 62.6691C83.2701 62.7994 79.6251 62.7035 76.6726 62.6977C76.6045 61.4136 76.6249 57.8904 76.728 56.7228C75.4103 56.8257 74.1199 56.7867 72.7756 56.9249C71.3741 57.0688 69.9752 57.0238 68.5522 57.1922C66.0233 57.4016 63.4881 57.5255 60.9514 57.5629C61.0639 54.8479 60.8543 51.8642 60.9926 49.1153C61.9061 49.0045 62.8799 49.0204 63.8092 48.9578L72.332 48.4486L89.9257 47.2632C93.4951 47.0111 97.2945 46.8175 100.837 46.4596C101.549 46.4117 102.084 46.4073 102.794 46.4135Z" fill="white"/>
<path d="M99.7633 23.9888C100.327 24.758 100.789 29.788 100.896 31.0012C99.437 31.3377 97.8027 31.5701 96.3035 31.8795C98.0277 34.8975 99.6742 37.8798 100.986 41.1132C101.16 41.5399 101.953 43.0877 101.718 43.4093C100.997 43.6136 98.989 43.7313 98.157 43.8071L94.6893 44.0999C93.5442 44.2039 92.3436 44.3483 91.1978 44.2988C90.0039 41.0725 87.3518 36.3038 85.5803 33.3975C84.7024 33.397 83.1778 33.6287 82.2599 33.7237C81.1704 33.8364 79.9211 33.9283 78.8587 34.0881C78.626 34.4163 78.4084 34.83 78.2314 35.1924C76.7016 38.3181 75.0688 41.4169 73.6199 44.5804C73.0079 45.8989 72.7189 45.5613 71.3688 45.6545C68.2474 45.8697 65.1468 46.1175 62.0175 46.1382C62.4244 45.4131 62.9357 44.1973 63.3197 43.4029C64.2713 41.4228 65.2658 39.4634 66.3027 37.5267C66.752 36.6879 67.2094 35.7753 67.7189 34.9807C66.3488 34.9719 64.7205 35.2167 63.1074 35.2162C63.2178 33.3533 63.0901 30.4762 63.0837 28.5396C63.2784 28.2558 66.0004 28.2601 66.5276 28.2214C67.9788 28.1146 69.461 28.0494 70.9078 27.9318C77.9992 27.388 85.0611 26.5126 92.0722 25.3111C94.207 24.947 97.4487 24.438 99.4624 23.9236L99.5511 23.9013L99.7633 23.9888Z" fill="white"/>
<path fill-rule="evenodd" clip-rule="evenodd" d="M24.5283 25.4336C26.9448 25.3277 29.1375 25.818 31.5081 26.2133C33.6461 26.578 35.7921 26.8934 37.9446 27.1585C40.3843 27.4473 43.1757 27.7298 45.5628 27.8777C51.5659 28.2497 57.7507 28.9314 57.124 36.5783C56.6784 42.0147 53.9606 43.8367 48.85 44.5104C48.0901 44.5781 47.2098 44.571 46.4294 44.6043L32.9307 45.1357C30.3103 45.2543 28.1489 45.471 25.5058 45.1071C20.4933 44.4167 17.4447 41.2721 17.1018 36.1375C16.7273 30.5289 18.3878 26.0202 24.5283 25.4336ZM33.3125 33.0379C31.6527 32.9061 30.1759 32.7427 28.4919 32.8501C26.9987 33.0675 26.7093 34.3742 26.9046 35.6713C27.2782 38.1523 30.1947 37.6532 32.0135 37.7017C34.0306 37.7555 36.0772 37.6387 38.0935 37.6237L42.564 37.5744C43.2543 37.5702 44.9091 37.5999 45.4757 37.4869C46.1939 37.3399 46.7018 37.257 47.1613 36.599C47.8039 35.678 47.4111 34.4539 46.4389 33.9608C46.1201 33.7992 45.3719 33.7537 45.0052 33.6967C42.5014 33.5599 39.8982 33.4921 37.4028 33.3291L33.3125 33.0379Z" fill="white"/>
<path d="M86.2473 2.61274C87.9943 2.8987 89.7297 3.25652 91.4481 3.6852C91.5255 10.1641 91.3428 15.1452 89.8924 21.532C89.7692 22.0567 89.6953 22.2892 89.5011 22.7922L86.3994 21.7166C86.4445 21.0297 86.5096 20.3009 86.5784 19.6162C87.1567 13.8855 86.8098 8.32916 86.2473 2.61274Z" fill="white"/>
<path d="M58.1015 15.0304C60.2571 14.904 60.2319 15.1159 60.0785 17.169C60.0535 17.5058 60.0755 18.4466 60.0769 18.889C62.2687 19.0791 64.7562 18.3822 66.8936 18.3464L67.3641 20.3163C66.434 20.7441 65.4783 21.1158 64.5031 21.4286C61.7615 22.2851 58.1484 22.7973 55.2785 22.7715C55.0913 21.4903 54.9124 20.3254 54.865 19.0259C54.8179 17.729 54.8656 16.4468 54.827 15.1529C55.3824 15.0873 56.4485 15.1019 57.0686 15.0702C57.3782 15.0407 57.8327 15.0461 58.1015 15.0304Z" fill="white"/>
<path fill-rule="evenodd" clip-rule="evenodd" d="M45.9082 0.404163C45.8653 1.2925 45.9887 2.39896 45.9731 3.34787C45.899 7.83912 45.6599 12.2686 44.7898 16.6884C44.56 17.8551 44.364 18.9792 43.9739 20.1079C43.023 20.1727 41.7305 20.078 40.7723 19.9997C40.9425 19.3183 40.9893 18.2166 41.0543 17.5031C41.26 15.2444 41.2704 13.0028 41.3189 10.7374C40.473 10.8735 38.5935 11.265 37.7656 11.5743C37.5154 11.6678 37.106 12.6459 36.9371 12.9603C36.0262 14.6542 34.8661 15.6363 33.1588 16.4466C29.9128 17.784 26.1849 16.5764 25.8099 12.7041C25.2628 6.68748 33.2517 1.47458 37.2523 7.30675C37.4426 7.58416 40.6314 6.95849 41.1921 6.8994C41.0631 4.90707 40.8652 2.97984 40.6836 0.994494C42.0688 0.803129 43.5171 0.539256 44.9117 0.455081L45.9082 0.404163ZM31.9454 8.78019C30.4688 9.31227 29.555 10.5098 30.4325 12.0262C30.986 12.3826 31.0682 12.3951 31.7283 12.3938C33.7573 11.555 34.1542 8.9618 31.9454 8.78019Z" fill="white"/>
<path d="M63.7094 0C65.0793 0.0795939 67.5223 0.162743 68.8167 0.343697C68.8862 0.869663 68.8884 1.3375 68.8849 1.86488C68.8548 6.13647 68.5962 10.4354 67.3989 14.5514C67.2599 15.0393 67.1464 15.2617 66.93 15.7194C65.8768 15.5227 64.8259 15.3102 63.7791 15.0813C63.8078 14.6012 63.8734 14.0874 63.9185 13.6079C64.2366 10.3241 64.1331 7.07864 63.9296 3.79499C63.8859 3.09794 63.5725 0.414748 63.7094 0Z" fill="white"/>
<path fill-rule="evenodd" clip-rule="evenodd" d="M75.7744 3.60882C83.9367 2.73132 86.5582 14.1877 79.4544 15.5046C71.3853 16.6549 68.4087 5.16332 75.7744 3.60882ZM77.1082 7.48974C74.828 8.5391 76.0731 11.0999 78.1189 11.089C80.2773 9.99374 79.0509 7.51414 77.1082 7.48974Z" fill="white"/>
<path d="M59.6698 0.0938803C60.0654 0.0457978 60.5693 -0.0273642 60.8373 0.297553C61.1754 1.65507 61.0848 7.69005 60.9149 9.22891C59.7985 9.57045 58.3347 9.45371 57.1589 9.55829C56.227 9.64108 55.2405 9.70284 54.3169 9.80333C54.0584 9.98817 54.1442 9.8728 54.027 10.1502C54.0466 10.3601 54.1554 10.5103 54.3027 10.6514C55.8844 12.1665 59.1748 10.9023 61.2555 10.8997C61.5469 11.1171 61.7554 12.6631 61.8242 13.0923C58.7363 13.8529 53.7698 14.8994 50.8302 13.6158C48.0942 12.0834 48.367 8.83174 48.6076 6.11495C49.3422 5.94678 50.5873 5.9351 51.3688 5.87945C52.9948 5.77387 54.619 5.63113 56.2385 5.45142L56.1894 4.10368C55.5168 4.12735 54.7509 4.25782 54.0761 4.27553C52.3309 4.32109 50.7456 4.4151 49.0052 4.59854C48.8234 3.37693 48.8518 1.91119 48.7359 0.64125C50.1481 0.475215 51.6162 0.583186 52.9735 0.439169C55.1151 0.211713 57.6016 0.377476 59.6698 0.0938803Z" fill="white"/>
</g>
</svg>
