<svg preserveAspectRatio="none" width="100%" height="100%" overflow="visible" style="display: block;" viewBox="0 0 68 22" fill="none" xmlns="http://www.w3.org/2000/svg">
<g id="smart">
<rect width="68" height="22" rx="4" fill="var(--fill-0, white)"/>
<g id="Union">
<path d="M59.1049 8.18225C59.2793 8.18225 59.3795 8.22136 59.441 8.27951C59.5075 8.34262 59.5696 8.46629 59.5696 8.70503V11.7736C59.5696 12.0065 59.5079 12.1274 59.4419 12.1894C59.3802 12.2471 59.2795 12.2867 59.1049 12.2867C58.9377 12.2866 58.8353 12.248 58.7713 12.1886C58.7037 12.1257 58.6403 12.0042 58.6403 11.7736V8.70503C58.6403 8.46854 58.7041 8.34422 58.7721 8.28032C58.836 8.22044 58.9379 8.18232 59.1049 8.18225Z" fill="url(#paint0_linear_8_3495)"/>
<path fill-rule="evenodd" clip-rule="evenodd" d="M52.5188 4C54.247 4.00004 55.7283 4.76556 55.7284 5.64048C55.7286 4.7656 57.2103 4.00011 58.9365 4H63.506C63.7788 4 64 4.19605 64 4.43768V15.8124C64 16.2956 63.5582 16.6876 63.0129 16.6878H58.9381C57.21 16.6878 55.7285 16.9064 55.7284 18C55.7284 16.9063 54.2471 16.6878 52.5188 16.6878H48.4449C47.8995 16.6876 47.4569 16.2956 47.4569 15.8124V4.43768C47.4569 4.19615 47.6783 4.00015 47.9509 4H52.5188ZM59.1049 6.73467C58.395 6.73475 57.8118 6.91415 57.4081 7.27772C57.0068 7.63942 56.8141 8.15516 56.8141 8.77474V11.6942C56.8141 12.3138 57.0067 12.8295 57.4081 13.1912C57.8118 13.5548 58.395 13.7342 59.1049 13.7343C59.8203 13.7343 60.4069 13.5556 60.8123 13.192C61.2157 12.8302 61.408 12.3139 61.408 11.6942V8.77474C61.408 8.15505 61.2156 7.63872 60.8123 7.27691C60.4069 6.91338 59.8203 6.73467 59.1049 6.73467ZM50.2987 6.82221C50.187 6.82254 50.0961 6.90084 50.0961 6.99728V8.04689C50.0962 8.14327 50.1871 8.22163 50.2987 8.22196H51.9027C52.1404 8.22198 52.2609 8.27058 52.3259 8.32409C52.3936 8.38001 52.4561 8.48663 52.4561 8.69125C52.4561 8.84933 52.4389 8.98997 52.4073 9.11434L52.4057 9.12407C52.3824 9.23846 52.3317 9.3603 52.2494 9.48961L52.2478 9.49123L52.247 9.49285C52.1701 9.61872 52.0614 9.76024 51.9174 9.91675C51.7738 10.067 51.5851 10.2394 51.351 10.4347C51.112 10.6343 50.907 10.8222 50.7382 10.9972L50.7365 10.9996L50.7341 11.002C50.5709 11.1792 50.4359 11.3566 50.3313 11.5337C50.239 11.6899 50.1698 11.8486 50.1262 12.0087L50.1091 12.0768C50.0689 12.248 50.0497 12.4301 50.0497 12.6206V13.4717C50.0497 13.5682 50.1405 13.6465 50.2523 13.6467H54.2074C54.3195 13.6467 54.4101 13.5683 54.4101 13.4717V12.4131C54.4099 12.3166 54.3194 12.2381 54.2074 12.2381H51.9483C51.952 12.2135 51.9577 12.1895 51.9638 12.1659C51.9856 12.1085 52.0221 12.0386 52.0777 11.956C52.1327 11.8744 52.2132 11.7772 52.3227 11.6642C52.4308 11.5526 52.577 11.4189 52.7621 11.2622C53.0583 11.0119 53.3088 10.7815 53.5133 10.5733C53.7199 10.3627 53.8892 10.1573 54.017 9.95646L54.0186 9.95322C54.1446 9.74892 54.234 9.54354 54.2839 9.33804C54.3334 9.16036 54.3609 8.97297 54.3669 8.77636L54.3678 8.69125C54.3678 8.11376 54.1936 7.63366 53.7867 7.2996C53.3773 6.96361 52.7866 6.81937 52.0777 6.82221H50.2987ZM55.4762 12.2907C55.1976 12.291 54.9716 12.4869 54.9716 12.7284V13.1653C54.9716 13.4068 55.1976 13.6027 55.4762 13.603H55.9815C56.2602 13.6028 56.4861 13.4068 56.4861 13.1653V12.7284C56.4861 12.4869 56.2602 12.2909 55.9815 12.2907H55.4762Z" fill="url(#paint1_linear_8_3495)"/>
<path fill-rule="evenodd" clip-rule="evenodd" d="M29.1055 6.62525C31.2421 6.62256 32.1435 7.53453 32.1451 9.32588L32.1483 14.0536C32.1483 15.8808 30.8512 16.6877 28.6717 16.6878C26.4937 16.6878 25.2343 15.884 25.2342 14.0569V12.5347C25.2328 10.6553 26.3635 10.0097 28.3112 10.0083H29.7574V9.29184C29.7574 8.71954 29.4847 8.48571 28.815 8.487H26.3459C26.2778 8.487 26.2223 8.43788 26.2222 8.37758V6.73467C26.2222 6.67427 26.2777 6.62525 26.3459 6.62525H29.1055ZM28.5635 11.7809C28.081 11.781 27.6 11.9421 27.6 12.6052V13.9126C27.6001 14.5934 28.0416 14.8258 28.6701 14.8244C29.2194 14.8244 29.696 14.7131 29.7533 14.1241L29.759 14.0017V11.7809H28.5635Z" fill="url(#paint2_linear_8_3495)"/>
<path d="M9.80196 4C9.87014 4 9.92566 4.04901 9.92566 4.10942V5.8423C9.92564 5.90269 9.87013 5.95172 9.80196 5.95172H8.07424C7.25312 5.96117 6.51534 6.37596 6.52719 7.22017C6.53905 8.16975 6.84038 8.64105 8.09133 9.32994L8.81156 9.72709C10.4016 10.6063 10.7928 11.6397 10.7899 13.0105C10.7959 15.0676 9.82749 16.4364 6.8397 16.4689H4.3706C4.30246 16.4689 4.24697 16.4199 4.2469 16.3595V14.6266C4.2469 14.5662 4.30242 14.5172 4.3706 14.5172H6.716C7.93565 14.5037 8.1916 13.9524 8.20201 13.1434C8.21239 12.387 8.01505 11.7739 7.105 11.3092L6.44907 10.9818C4.98765 10.2429 4.02551 9.16228 4.00032 7.19423C3.97232 5.01432 5.80069 4.0081 8.07424 4H9.80196Z" fill="url(#paint3_linear_8_3495)"/>
<path d="M20.3685 6.51908C22.6445 6.44436 23.9952 7.46901 23.9997 9.44827V16.3595C23.9996 16.4198 23.9448 16.4688 23.8768 16.4689H21.6461C21.612 16.4689 21.5843 16.444 21.5843 16.4138L21.5729 9.52446C21.5714 8.76385 21.0857 8.39392 20.3896 8.39379C19.6517 8.39379 19.2309 8.80301 19.2324 9.54472V16.3595C19.2323 16.4198 19.1775 16.4688 19.1095 16.4689H16.9065C16.8384 16.4689 16.783 16.4198 16.7828 16.3595L16.7665 9.54878C16.7665 8.80572 16.3435 8.40109 15.6264 8.40109C14.9316 8.4011 14.4953 8.7813 14.4968 9.54067V16.3595C14.4968 16.4199 14.4412 16.4689 14.3731 16.4689H12.1596C12.0915 16.4689 12.0368 16.4198 12.0367 16.3595L12.0245 9.46853C12.0216 7.48806 13.2839 6.46007 15.5613 6.52799C16.7845 6.56201 17.543 7.09016 17.9246 7.63758C18.324 7.08877 19.1243 6.55711 20.3685 6.51908Z" fill="url(#paint4_linear_8_3495)"/>
<path d="M37.8271 6.62931C37.8953 6.62931 37.9509 6.67826 37.9508 6.73873L37.9475 8.37596C37.9474 8.43617 37.8926 8.48519 37.8247 8.48538L36.9775 8.48781C36.0893 8.49055 35.7945 8.79272 35.7975 9.78463L35.7901 16.3595C35.7901 16.4198 35.7352 16.4688 35.6672 16.4689H33.5294C33.4615 16.4688 33.4067 16.4197 33.4065 16.3595L33.3829 9.66792C33.3754 7.48943 34.1771 6.63754 36.7358 6.62931H37.8271Z" fill="url(#paint5_linear_8_3495)"/>
<path d="M42.4495 4C42.5176 4.00003 42.5731 4.04911 42.5732 4.10942L42.5789 6.95351H43.8769C43.9449 6.95363 43.9996 7.00197 43.9998 7.06212V8.70341C43.9997 8.76362 43.9449 8.81271 43.8769 8.81283H42.5789V13.2407C42.5789 14.2698 43.074 14.5537 43.9779 14.5537H44.3709C44.4389 14.5539 44.4938 14.6028 44.4938 14.6631V16.3595C44.4938 16.4198 44.4389 16.4687 44.3709 16.4689H43.7858C41.1848 16.4703 40.0674 15.5842 40.0643 13.402L40.0496 8.81283H38.8151C38.747 8.81283 38.6915 8.76369 38.6914 8.70341V7.06212C38.6916 7.00189 38.747 6.95351 38.8151 6.95351H40.0496V4.10942C40.0496 4.04901 40.1051 4 40.1733 4H42.4495Z" fill="url(#paint6_linear_8_3495)"/>
</g>
</g>
<defs>
<linearGradient id="paint0_linear_8_3495" x1="34" y1="4" x2="34" y2="18" gradientUnits="userSpaceOnUse">
<stop offset="0.403846" stop-color="#1689DD"/>
<stop offset="1" stop-color="#51AEF2"/>
</linearGradient>
<linearGradient id="paint1_linear_8_3495" x1="34" y1="4" x2="34" y2="18" gradientUnits="userSpaceOnUse">
<stop offset="0.403846" stop-color="#1689DD"/>
<stop offset="1" stop-color="#51AEF2"/>
</linearGradient>
<linearGradient id="paint2_linear_8_3495" x1="34" y1="4" x2="34" y2="18" gradientUnits="userSpaceOnUse">
<stop offset="0.403846" stop-color="#1689DD"/>
<stop offset="1" stop-color="#51AEF2"/>
</linearGradient>
<linearGradient id="paint3_linear_8_3495" x1="34" y1="4" x2="34" y2="18" gradientUnits="userSpaceOnUse">
<stop offset="0.403846" stop-color="#1689DD"/>
<stop offset="1" stop-color="#51AEF2"/>
</linearGradient>
<linearGradient id="paint4_linear_8_3495" x1="34" y1="4" x2="34" y2="18" gradientUnits="userSpaceOnUse">
<stop offset="0.403846" stop-color="#1689DD"/>
<stop offset="1" stop-color="#51AEF2"/>
</linearGradient>
<linearGradient id="paint5_linear_8_3495" x1="34" y1="4" x2="34" y2="18" gradientUnits="userSpaceOnUse">
<stop offset="0.403846" stop-color="#1689DD"/>
<stop offset="1" stop-color="#51AEF2"/>
</linearGradient>
<linearGradient id="paint6_linear_8_3495" x1="34" y1="4" x2="34" y2="18" gradientUnits="userSpaceOnUse">
<stop offset="0.403846" stop-color="#1689DD"/>
<stop offset="1" stop-color="#51AEF2"/>
</linearGradient>
</defs>
</svg>
