<svg preserveAspectRatio="none" width="100%" height="100%" overflow="visible" style="display: block;" viewBox="0 0 78 14" fill="none" xmlns="http://www.w3.org/2000/svg">
<g id="score">
<path id="Star 1" d="M6.10456 0.679308C6.38641 -0.226436 7.61359 -0.226436 7.89544 0.679309L8.90246 3.91549C9.0285 4.32055 9.39 4.5948 9.79789 4.5948H13.0567C13.9687 4.5948 14.348 5.81347 13.6101 6.37325L10.9737 8.37332C10.6437 8.62366 10.5056 9.0674 10.6317 9.47246L11.6387 12.7086C11.9205 13.6144 10.9277 14.3676 10.1898 13.8078L7.55341 11.8077C7.22342 11.5574 6.77658 11.5574 6.44659 11.8077L3.81018 13.8078C3.0723 14.3676 2.07949 13.6144 2.36133 12.7086L3.36835 9.47246C3.4944 9.0674 3.35631 8.62366 3.02632 8.37332L0.389912 6.37325C-0.347968 5.81347 0.0312524 4.5948 0.943323 4.5948H4.20211C4.61 4.5948 4.9715 4.32055 5.09754 3.91549L6.10456 0.679308Z" fill="var(--fill-0, #F12E41)"/>
<path id="Star 2" d="M22.1046 0.679308C22.3864 -0.226436 23.6136 -0.226436 23.8954 0.679309L24.9025 3.91549C25.0285 4.32055 25.39 4.5948 25.7979 4.5948H29.0567C29.9687 4.5948 30.348 5.81347 29.6101 6.37325L26.9737 8.37332C26.6437 8.62366 26.5056 9.0674 26.6317 9.47246L27.6387 12.7086C27.9205 13.6144 26.9277 14.3676 26.1898 13.8078L23.5534 11.8077C23.2234 11.5574 22.7766 11.5574 22.4466 11.8077L19.8102 13.8078C19.0723 14.3676 18.0795 13.6144 18.3613 12.7086L19.3684 9.47246C19.4944 9.0674 19.3563 8.62366 19.0263 8.37332L16.3899 6.37325C15.652 5.81347 16.0313 4.5948 16.9433 4.5948H20.2021C20.61 4.5948 20.9715 4.32055 21.0975 3.91549L22.1046 0.679308Z" fill="var(--fill-0, #F12E41)"/>
<path id="Star 3" d="M38.1046 0.679308C38.3864 -0.226436 39.6136 -0.226436 39.8954 0.679309L40.9025 3.91549C41.0285 4.32055 41.39 4.5948 41.7979 4.5948H45.0567C45.9687 4.5948 46.348 5.81347 45.6101 6.37325L42.9737 8.37332C42.6437 8.62366 42.5056 9.0674 42.6317 9.47246L43.6387 12.7086C43.9205 13.6144 42.9277 14.3676 42.1898 13.8078L39.5534 11.8077C39.2234 11.5574 38.7766 11.5574 38.4466 11.8077L35.8102 13.8078C35.0723 14.3676 34.0795 13.6144 34.3613 12.7086L35.3684 9.47246C35.4944 9.0674 35.3563 8.62366 35.0263 8.37332L32.3899 6.37325C31.652 5.81347 32.0313 4.5948 32.9433 4.5948H36.2021C36.61 4.5948 36.9715 4.32055 37.0975 3.91549L38.1046 0.679308Z" fill="var(--fill-0, #F12E41)"/>
<path id="Star 4" d="M54.1046 0.679308C54.3864 -0.226436 55.6136 -0.226436 55.8954 0.679309L56.9025 3.91549C57.0285 4.32055 57.39 4.5948 57.7979 4.5948H61.0567C61.9687 4.5948 62.348 5.81347 61.6101 6.37325L58.9737 8.37332C58.6437 8.62366 58.5056 9.0674 58.6317 9.47246L59.6387 12.7086C59.9205 13.6144 58.9277 14.3676 58.1898 13.8078L55.5534 11.8077C55.2234 11.5574 54.7766 11.5574 54.4466 11.8077L51.8102 13.8078C51.0723 14.3676 50.0795 13.6144 50.3613 12.7086L51.3684 9.47246C51.4944 9.0674 51.3563 8.62366 51.0263 8.37332L48.3899 6.37325C47.652 5.81347 48.0313 4.5948 48.9433 4.5948H52.2021C52.61 4.5948 52.9715 4.32055 53.0975 3.91549L54.1046 0.679308Z" fill="var(--fill-0, #F12E41)"/>
<path id="Star 5" d="M70.1046 0.679308C70.3864 -0.226436 71.6136 -0.226436 71.8954 0.679309L72.9025 3.91549C73.0285 4.32055 73.39 4.5948 73.7979 4.5948H77.0567C77.9687 4.5948 78.348 5.81347 77.6101 6.37325L74.9737 8.37332C74.6437 8.62366 74.5056 9.0674 74.6317 9.47246L75.6387 12.7086C75.9205 13.6144 74.9277 14.3676 74.1898 13.8078L71.5534 11.8077C71.2234 11.5574 70.7766 11.5574 70.4466 11.8077L67.8102 13.8078C67.0723 14.3676 66.0795 13.6144 66.3613 12.7086L67.3684 9.47246C67.4944 9.0674 67.3563 8.62366 67.0263 8.37332L64.3899 6.37325C63.652 5.81347 64.0313 4.5948 64.9433 4.5948H68.2021C68.61 4.5948 68.9715 4.32055 69.0975 3.91549L70.1046 0.679308Z" fill="var(--fill-0, #F12E41)"/>
</g>
</svg>
