<svg preserveAspectRatio="none" width="100%" height="100%" overflow="visible" style="display: block;" viewBox="0 0 15 8" fill="none" xmlns="http://www.w3.org/2000/svg">
<path id="Union" d="M0.00585938 1.10254C0.0130573 1.17034 0.0267071 1.23717 0.0478516 1.30176L0.0849609 1.39648L0.130859 1.48633C0.181405 1.57398 0.244604 1.65338 0.318359 1.72168L0.319336 1.7207L6.77832 7.71973C6.87628 7.81091 6.99086 7.88117 7.11426 7.92871C7.23749 7.97615 7.36852 7.99998 7.5 8C7.63163 8 7.76335 7.97624 7.88672 7.92871C8.00979 7.88125 8.12293 7.80963 8.2207 7.71875L14.6826 1.7207C14.8808 1.53649 14.9999 1.27856 15 1.00098C15 0.723183 14.881 0.464545 14.6826 0.280273C14.4854 0.0971632 14.225 3.83489e-06 13.9609 0C13.6968 0 13.4365 0.0971596 13.2393 0.280273L7.5 5.60938L1.76074 0.280273L1.75977 0.28125C1.66198 0.190376 1.54887 0.118735 1.42578 0.0712891C1.30241 0.0237607 1.17069 0 1.03906 0C0.907587 3.63302e-05 0.776547 0.023837 0.65332 0.0712891C0.529922 0.11883 0.415341 0.190071 0.317383 0.28125C0.219669 0.372031 0.140171 0.481939 0.0849609 0.605469C0.0295141 0.729578 0 0.864123 0 1.00098L0.00585938 1.10254Z" fill="var(--fill-0, #212121)"/>
</svg>
