<svg preserveAspectRatio="none" width="100%" height="100%" overflow="visible" style="display: block;" viewBox="0 0 15 8" fill="none" xmlns="http://www.w3.org/2000/svg">
<path id="Union" d="M14.9941 6.89746C14.9869 6.82966 14.9733 6.76283 14.9521 6.69824L14.915 6.60352L14.8691 6.51367C14.8186 6.42602 14.7554 6.34662 14.6816 6.27832L14.6807 6.2793L8.22168 0.280273C8.12372 0.189092 8.00914 0.118829 7.88574 0.0712891C7.76251 0.0238538 7.63148 1.71975e-05 7.5 0C7.36837 0 7.23665 0.0237617 7.11328 0.0712891C6.99021 0.118747 6.87707 0.190369 6.7793 0.28125L0.317383 6.2793C0.11917 6.46351 6.02497e-05 6.72144 0 6.99902C0 7.27682 0.118954 7.53545 0.317383 7.71973C0.514606 7.90284 0.774972 8 1.03906 8C1.30316 8 1.56352 7.90284 1.76074 7.71973L7.5 2.39062L13.2393 7.71973L13.2402 7.71875C13.338 7.80962 13.4511 7.88127 13.5742 7.92871C13.6976 7.97624 13.8293 8 13.9609 8C14.0924 7.99996 14.2235 7.97616 14.3467 7.92871C14.4701 7.88117 14.5847 7.80993 14.6826 7.71875C14.7803 7.62797 14.8598 7.51806 14.915 7.39453C14.9705 7.27042 15 7.13588 15 6.99902L14.9941 6.89746Z" fill="var(--fill-0, white)"/>
</svg>
