<svg preserveAspectRatio="none" width="100%" height="100%" overflow="visible" style="display: block;" viewBox="0 0 12 15" fill="none" xmlns="http://www.w3.org/2000/svg">
<path id="Q" d="M5.18675 9.2409H7.33735L8.45783 10.7654C9.18976 9.95609 9.63253 8.6857 9.63253 7.00125C9.63253 3.89586 8.13253 2.20201 6 2.20201C3.86747 2.20201 2.36747 3.89586 2.36747 7.00125C2.36747 10.1067 3.86747 11.8005 6 11.8005C6.34337 11.8005 6.66867 11.7535 6.9759 11.6688L5.18675 9.2409ZM12 7.00125C12 9.47616 11.1867 11.377 9.88554 12.5721L11.6928 15H9.39759L8.31325 13.5508C7.60843 13.8519 6.83133 14.0025 6 14.0025C2.56627 14.0025 0 11.3864 0 7.00125C0 2.59724 2.56627 0 6 0C9.43373 0 12 2.59724 12 7.00125Z" fill="var(--fill-0, #212121)"/>
</svg>
