<svg preserveAspectRatio="none" width="100%" height="100%" overflow="visible" style="display: block;" viewBox="0 0 8 15" fill="none" xmlns="http://www.w3.org/2000/svg">
<path id="Union" d="M1.10254 0.00585938C1.17034 0.0130573 1.23717 0.0267071 1.30176 0.0478516L1.39648 0.0849609L1.48633 0.130859C1.57398 0.181405 1.65338 0.244604 1.72168 0.318359L1.7207 0.319336L7.71973 6.77832C7.81091 6.87628 7.88117 6.99086 7.92871 7.11426C7.97615 7.23749 7.99998 7.36852 8 7.5C8 7.63163 7.97624 7.76335 7.92871 7.88672C7.88125 8.00979 7.80963 8.12293 7.71875 8.2207L1.7207 14.6826C1.53649 14.8808 1.27856 14.9999 1.00098 15C0.723183 15 0.464545 14.881 0.280273 14.6826C0.0971632 14.4854 3.83489e-06 14.225 0 13.9609C0 13.6968 0.0971596 13.4365 0.280273 13.2393L5.60938 7.5L0.280273 1.76074L0.28125 1.75977C0.190376 1.66198 0.118735 1.54887 0.0712891 1.42578C0.0237607 1.30241 0 1.17069 0 1.03906C3.63302e-05 0.907587 0.023837 0.776547 0.0712891 0.65332C0.11883 0.529922 0.190071 0.415341 0.28125 0.317383C0.372031 0.219669 0.481939 0.140171 0.605469 0.0849609C0.729578 0.0295141 0.864123 0 1.00098 0L1.10254 0.00585938Z" fill="var(--fill-0, white)"/>
</svg>
