<svg preserveAspectRatio="none" width="100%" height="100%" overflow="visible" style="display: block;" viewBox="0 0 90.0005 23.8135" fill="none" xmlns="http://www.w3.org/2000/svg">
<path id="Union" d="M72.7778 0C75.3703 8.94415e-05 77.5923 1.30269 77.5923 2.79102C77.5923 1.30264 79.8151 0 82.4048 0H89.2593C89.6682 0.000145007 90.0005 0.333248 90.0005 0.744141V20.0928C90.0005 20.9146 89.3369 21.5807 88.519 21.5811H82.4077C79.8153 21.5811 77.5927 21.9534 77.5923 23.8135C77.5919 21.9535 75.3701 21.5811 72.7778 21.5811H66.6665C65.8484 21.5809 65.185 20.9147 65.185 20.0928V0.744141C65.1851 0.333159 65.5172 1.57313e-08 65.9263 0H72.7778ZM37.6577 4.46484C40.8629 4.46016 42.2151 6.01221 42.2173 9.05957L42.2222 17.1016C42.2222 20.2097 40.2765 21.581 37.0073 21.5811C33.7402 21.5811 31.8521 20.2146 31.852 17.1064V14.5176C31.8499 11.3205 33.5455 10.223 36.4673 10.2207H38.6362V9.00098C38.6362 8.02753 38.2267 7.62962 37.2222 7.63184H33.5181C33.4161 7.63167 33.3337 7.54872 33.3335 7.44629V4.65137C33.3335 4.54872 33.4159 4.46501 33.5181 4.46484H37.6577ZM8.7036 0C8.80585 3.37329e-05 8.88915 0.0837936 8.88915 0.186523V3.13379C8.88909 3.23646 8.80581 3.3193 8.7036 3.31934H6.11083C4.8792 3.33546 3.77273 4.04157 3.79052 5.47754C3.80831 7.09269 4.25996 7.89468 6.13622 9.06641L7.21728 9.74219C9.60243 11.2378 10.1895 12.9953 10.185 15.3271C10.1939 18.8264 8.74119 21.1538 4.25927 21.209H0.555166C0.453057 21.2089 0.370694 21.126 0.370596 21.0234V18.0752C0.37083 17.9727 0.453142 17.8898 0.555166 17.8896H4.07372C5.90337 17.8667 6.28762 16.9289 6.30321 15.5527C6.31878 14.2661 6.02277 13.223 4.65771 12.4326L3.67333 11.876C1.48122 10.6192 0.0382738 8.78122 0.000478691 5.43359C-0.0416361 1.72545 2.70051 0.0138232 6.11083 0H8.7036ZM24.5522 4.28516C27.9662 4.15807 29.9928 5.90085 29.9995 9.26758V21.0234C29.9994 21.126 29.917 21.2088 29.8149 21.209H26.4692C26.4181 21.209 26.3765 21.1676 26.3765 21.1162L26.3589 9.39648C26.3565 8.10275 25.6278 7.47461 24.5835 7.47461C23.4769 7.47474 22.8469 8.1701 22.8491 9.43164V21.0234C22.849 21.1261 22.7658 21.209 22.6636 21.209H19.3589C19.2569 21.2088 19.1745 21.1259 19.1743 21.0234L19.1499 9.43848C19.1499 8.17464 18.5154 7.48647 17.4399 7.48633C16.3977 7.48633 15.7424 8.13311 15.7446 9.4248V21.0234C15.7445 21.1261 15.6613 21.209 15.5591 21.209H12.2397C12.1376 21.209 12.0543 21.1261 12.0542 21.0234L12.0366 9.30273C12.0322 5.9338 13.9253 4.18438 17.3413 4.2998C19.1763 4.35757 20.3149 5.25628 20.8872 6.1875C21.4862 5.25403 22.6862 4.34996 24.5522 4.28516ZM50.7407 4.47168C50.8429 4.47189 50.9253 4.55556 50.9253 4.6582L50.9214 7.44434C50.9211 7.54663 50.8387 7.62956 50.7368 7.62988L49.4663 7.63379C48.1339 7.63842 47.6913 8.15246 47.6958 9.83984L47.685 21.0234C47.685 21.126 47.6025 21.2087 47.5005 21.209H44.2944C44.1924 21.209 44.1092 21.126 44.1089 21.0234L44.0737 9.64062C44.0626 5.93491 45.2657 4.48557 49.104 4.47168H50.7407ZM57.6743 0C57.7762 0.000253804 57.8586 0.08316 57.8589 0.185547L57.8677 5.02344H59.8149C59.917 5.02359 59.9993 5.10647 59.9995 5.20898V8C59.9995 8.10266 59.9171 8.18637 59.8149 8.18652H57.8677V15.7188C57.8677 17.4692 58.6106 17.9512 59.9663 17.9512H60.5552C60.6574 17.9512 60.7407 18.0349 60.7407 18.1377V21.0234C60.7406 21.1261 60.6574 21.209 60.5552 21.209H59.6782C55.7766 21.2113 54.0997 19.7045 54.0952 15.9922L54.0737 8.18652H52.2222C52.1199 8.18652 52.0366 8.10275 52.0366 8V5.20898C52.0368 5.10638 52.12 5.02344 52.2222 5.02344H54.0737V0.186523C54.0737 0.0837728 54.157 0 54.2593 0H57.6743ZM36.8452 13.2354C36.1215 13.2354 35.4 13.509 35.3999 14.6367V16.8604C35.3999 18.0187 36.0616 18.4143 37.0044 18.4121C37.8282 18.4121 38.5432 18.2231 38.6294 17.2217L38.6382 17.0127V13.2354H36.8452ZM82.6567 4.65137C81.5918 4.65145 80.7173 4.95681 80.1118 5.5752C79.5096 6.1904 79.2213 7.06715 79.2212 8.12109V13.0879C79.2212 14.142 79.5095 15.0195 80.1118 15.6348C80.7173 16.253 81.5919 16.5585 82.6567 16.5586C83.7297 16.5585 84.6092 16.2532 85.2173 15.6348C85.8222 15.0193 86.1108 14.142 86.1108 13.0879V8.12109C86.1108 7.06717 85.8222 6.18959 85.2173 5.57422C84.6093 4.95585 83.7296 4.65142 82.6567 4.65137ZM69.4487 4.7998C69.2807 4.7998 69.1441 4.9333 69.144 5.09766V6.88379C69.1442 7.04807 69.2808 7.18164 69.4487 7.18164H71.854C72.2104 7.18174 72.3914 7.26342 72.4888 7.35449C72.5903 7.4496 72.6831 7.63143 72.6831 7.97949C72.6831 8.24832 72.6583 8.4877 72.6108 8.69922L72.6089 8.70801L72.6079 8.71582C72.573 8.9104 72.4969 9.11794 72.3735 9.33789L72.3716 9.34082L72.3706 9.34375C72.2553 9.55794 72.0916 9.7981 71.8755 10.0645C71.6602 10.32 71.3782 10.6141 71.0268 10.9463C70.6683 11.2859 70.3602 11.6047 70.1069 11.9023L70.1011 11.9102C69.8562 12.2116 69.6536 12.5131 69.4966 12.8145C69.3582 13.0801 69.2554 13.3497 69.1899 13.6221L69.1636 13.7393C69.1033 14.0305 69.0737 14.3389 69.0737 14.6631V16.1113C69.0737 16.2757 69.2104 16.4092 69.3784 16.4092H75.311C75.4789 16.409 75.6147 16.2756 75.6147 16.1113V14.3115C75.6147 14.1472 75.4789 14.0139 75.311 14.0137H71.9224C71.928 13.9717 71.9356 13.93 71.9448 13.8896C71.9776 13.7921 72.0324 13.6735 72.1157 13.5332C72.1982 13.3944 72.3195 13.2294 72.4839 13.0371C72.6462 12.8473 72.8644 12.6191 73.1421 12.3525C73.5864 11.9267 73.9634 11.536 74.27 11.1816C74.5799 10.8235 74.8332 10.4735 75.0249 10.1318L75.0278 10.127C75.2169 9.77934 75.3503 9.42973 75.4253 9.08008C75.4995 8.77767 75.5413 8.45867 75.5503 8.12402L75.5513 7.97949C75.5512 6.99728 75.2894 6.18051 74.6792 5.6123C74.0652 5.04088 73.1789 4.795 72.1157 4.7998H69.4487ZM77.2143 14.1025C76.7962 14.1025 76.4565 14.4357 76.4565 14.8467V15.5908C76.4566 16.0018 76.7962 16.335 77.2143 16.335H77.9712C78.3892 16.3348 78.728 16.0017 78.728 15.5908V14.8467C78.728 14.4358 78.3893 14.1027 77.9712 14.1025H77.2143ZM82.6567 7.11426C82.9187 7.1143 83.0694 7.18104 83.1616 7.28027C83.2611 7.38773 83.3539 7.59762 83.354 8.00293V13.2227C83.354 13.6184 83.2616 13.824 83.1626 13.9297C83.0702 14.0281 82.9189 14.0957 82.6567 14.0957C82.4059 14.0956 82.2528 14.0297 82.1567 13.9287C82.0552 13.8219 81.9605 13.6153 81.9604 13.2227V8.00293C81.9605 7.60058 82.0556 7.38985 82.1577 7.28125C82.2536 7.17938 82.406 7.11433 82.6567 7.11426Z" fill="url(#paint0_linear_7_1850)"/>
<defs>
<linearGradient id="paint0_linear_7_1850" x1="45.0002" y1="0" x2="45.0002" y2="23.8135" gradientUnits="userSpaceOnUse">
<stop offset="0.403846" stop-color="#1689DD"/>
<stop offset="1" stop-color="#51AEF2"/>
</linearGradient>
</defs>
</svg>
