<svg preserveAspectRatio="none" width="100%" height="100%" overflow="visible" style="display: block;" viewBox="0 0 58 24" fill="none" xmlns="http://www.w3.org/2000/svg">
<g id="logo-&#234;&#179;&#188;&#235;&#143;&#153;">
<path fill-rule="evenodd" clip-rule="evenodd" d="M37.1163 15.2975C39.5899 15.2975 41.6009 17.25 41.6009 19.6487C41.6007 22.0474 39.5883 24 37.1163 24C34.6443 24 32.6329 22.0474 32.6328 19.6487C32.6328 17.25 34.6442 15.2975 37.1163 15.2975ZM37.1152 17.4283C35.8548 17.4283 34.8287 18.4221 34.8284 19.6465C34.8284 20.8711 35.8547 21.8659 37.1152 21.8659C38.3754 21.8656 39.4008 20.8694 39.4008 19.6465C39.4006 18.4239 38.3753 17.4285 37.1152 17.4283Z" fill="var(--fill-0, #212121)"/>
<path d="M28.3392 4.43867H31.3556V6.56728H28.3392V15.3804H31.2012V23.8761H29.0067V17.4991H23.5259V15.3804H26.1491V0.00331904H28.3392V4.43867Z" fill="var(--fill-0, #212121)"/>
<path d="M11.9045 4.43867H14.9176V6.56728H11.9045V17.5002H9.70998V0.00331904H11.9045V4.43867Z" fill="var(--fill-0, #212121)"/>
<path d="M54.9847 4.43867H58V6.56728H54.9847V17.5002H52.7924V0.00331904H54.9847V4.43867Z" fill="var(--fill-0, #212121)"/>
<path d="M41.4609 2.81123H34.9273V7.0065H41.4609V9.13954H38.2835V11.6543H41.4609V13.7873H32.735V11.6543H36.0901V9.13954H32.735V0.689255H41.4609V2.81123Z" fill="var(--fill-0, #212121)"/>
<path d="M4.46795 11.6355H7.67536V13.763H0V11.6355H2.2734V6.69008H4.46795V11.6355Z" fill="var(--fill-0, #212121)"/>
<path fill-rule="evenodd" clip-rule="evenodd" d="M24.6287 2.85216V4.87014H23.9268L23.9568 4.93652C24.1602 5.39822 24.2633 5.88697 24.2633 6.38805C24.2631 8.43198 22.5494 10.0932 20.445 10.0932C18.3408 10.0931 16.6281 8.43033 16.6279 6.38805C16.6279 5.88851 16.7322 5.38723 16.9278 4.93652L16.9555 4.87014H16.2536V2.85216H24.6287ZM20.445 4.74181C19.5096 4.74193 18.7492 5.48033 18.7492 6.38805C18.7494 7.29558 19.5114 8.03307 20.445 8.03319C21.3804 8.03319 22.1407 7.29566 22.1409 6.38805C22.1409 5.48025 21.3806 4.74181 20.445 4.74181Z" fill="var(--fill-0, #212121)"/>
<path fill-rule="evenodd" clip-rule="evenodd" d="M47.0695 0.637256C49.5005 0.637256 51.4785 2.55466 51.4786 4.9155C51.4786 7.27641 49.5005 9.19596 47.0695 9.19596C44.6385 9.19582 42.6604 7.27475 42.6604 4.9155C42.6605 2.55632 44.6386 0.637393 47.0695 0.637256ZM47.0695 2.75812C45.8454 2.75826 44.8483 3.72615 44.8483 4.9144C44.8484 6.1025 45.8439 7.06942 47.0695 7.06956C48.2936 7.06956 49.2905 6.10416 49.2907 4.9144C49.2907 3.72449 48.2937 2.75812 47.0695 2.75812Z" fill="var(--fill-0, #212121)"/>
<path d="M7.67536 9.18158H5.48081V2.80238H0V0.682617H7.67536V9.18158Z" fill="var(--fill-0, #212121)"/>
<path d="M22.9072 1.93058H18.0739V0H22.9072V1.93058Z" fill="var(--fill-0, #212121)"/>
</g>
</svg>
